<mxfile host="app.diagrams.net" modified="2021-11-06T05:52:10.234Z" agent="5.0 (Windows NT 10.0; Win64; x64) AppleWebKit/537.36 (KHTML, like Gecko) Chrome/95.0.4638.69 Safari/537.36" etag="N26GuUhQkoLixK3n-hl6" version="15.6.8" type="github">
  <diagram id="qQhlSFlE4UVL-qKhEQT7" name="Page-1">
    <mxGraphModel dx="1698" dy="3" grid="1" gridSize="10" guides="1" tooltips="1" connect="1" arrows="1" fold="1" page="1" pageScale="1" pageWidth="1169" pageHeight="827" math="0" shadow="0">
      <root>
        <mxCell id="0" />
        <mxCell id="1" parent="0" />
        <mxCell id="A5qt4LOctd-uwlwcJDt4-1" value="DIAGRAMA DE CLASE" style="text;html=1;strokeColor=none;fillColor=none;align=center;verticalAlign=middle;whiteSpace=wrap;rounded=0;fontStyle=1;fontSize=15;" vertex="1" parent="1">
          <mxGeometry x="465" y="1100" width="250" height="30" as="geometry" />
        </mxCell>
        <mxCell id="A5qt4LOctd-uwlwcJDt4-2" value="CLIENTE" style="swimlane;fontStyle=1;align=center;verticalAlign=top;childLayout=stackLayout;horizontal=1;startSize=26;horizontalStack=0;resizeParent=1;resizeParentMax=0;resizeLast=0;collapsible=1;marginBottom=0;" vertex="1" parent="1">
          <mxGeometry x="215" y="1190" width="130" height="190" as="geometry" />
        </mxCell>
        <mxCell id="A5qt4LOctd-uwlwcJDt4-3" value="- IDcliente:int" style="text;strokeColor=none;fillColor=none;align=left;verticalAlign=top;spacingLeft=4;spacingRight=4;overflow=hidden;rotatable=0;points=[[0,0.5],[1,0.5]];portConstraint=eastwest;" vertex="1" parent="A5qt4LOctd-uwlwcJDt4-2">
          <mxGeometry y="26" width="130" height="26" as="geometry" />
        </mxCell>
        <mxCell id="A5qt4LOctd-uwlwcJDt4-4" value="- NomCliente:String" style="text;strokeColor=none;fillColor=none;align=left;verticalAlign=top;spacingLeft=4;spacingRight=4;overflow=hidden;rotatable=0;points=[[0,0.5],[1,0.5]];portConstraint=eastwest;" vertex="1" parent="A5qt4LOctd-uwlwcJDt4-2">
          <mxGeometry y="52" width="130" height="26" as="geometry" />
        </mxCell>
        <mxCell id="A5qt4LOctd-uwlwcJDt4-5" value="- TelCliente:int" style="text;strokeColor=none;fillColor=none;align=left;verticalAlign=top;spacingLeft=4;spacingRight=4;overflow=hidden;rotatable=0;points=[[0,0.5],[1,0.5]];portConstraint=eastwest;" vertex="1" parent="A5qt4LOctd-uwlwcJDt4-2">
          <mxGeometry y="78" width="130" height="26" as="geometry" />
        </mxCell>
        <mxCell id="A5qt4LOctd-uwlwcJDt4-6" value="" style="line;strokeWidth=1;fillColor=none;align=left;verticalAlign=middle;spacingTop=-1;spacingLeft=3;spacingRight=3;rotatable=0;labelPosition=right;points=[];portConstraint=eastwest;" vertex="1" parent="A5qt4LOctd-uwlwcJDt4-2">
          <mxGeometry y="104" width="130" height="8" as="geometry" />
        </mxCell>
        <mxCell id="A5qt4LOctd-uwlwcJDt4-7" value="+Agregar()" style="text;strokeColor=none;fillColor=none;align=left;verticalAlign=top;spacingLeft=4;spacingRight=4;overflow=hidden;rotatable=0;points=[[0,0.5],[1,0.5]];portConstraint=eastwest;" vertex="1" parent="A5qt4LOctd-uwlwcJDt4-2">
          <mxGeometry y="112" width="130" height="26" as="geometry" />
        </mxCell>
        <mxCell id="A5qt4LOctd-uwlwcJDt4-8" value="+Editar()" style="text;strokeColor=none;fillColor=none;align=left;verticalAlign=top;spacingLeft=4;spacingRight=4;overflow=hidden;rotatable=0;points=[[0,0.5],[1,0.5]];portConstraint=eastwest;" vertex="1" parent="A5qt4LOctd-uwlwcJDt4-2">
          <mxGeometry y="138" width="130" height="26" as="geometry" />
        </mxCell>
        <mxCell id="A5qt4LOctd-uwlwcJDt4-9" value="+Elimijnar()" style="text;strokeColor=none;fillColor=none;align=left;verticalAlign=top;spacingLeft=4;spacingRight=4;overflow=hidden;rotatable=0;points=[[0,0.5],[1,0.5]];portConstraint=eastwest;" vertex="1" parent="A5qt4LOctd-uwlwcJDt4-2">
          <mxGeometry y="164" width="130" height="26" as="geometry" />
        </mxCell>
        <mxCell id="A5qt4LOctd-uwlwcJDt4-10" style="edgeStyle=orthogonalEdgeStyle;rounded=0;orthogonalLoop=1;jettySize=auto;html=1;entryX=0.5;entryY=0;entryDx=0;entryDy=0;endArrow=none;endFill=0;" edge="1" parent="1" source="A5qt4LOctd-uwlwcJDt4-11">
          <mxGeometry relative="1" as="geometry">
            <mxPoint x="540" y="1520" as="targetPoint" />
          </mxGeometry>
        </mxCell>
        <mxCell id="A5qt4LOctd-uwlwcJDt4-11" value="ORDEN" style="swimlane;fontStyle=1;align=center;verticalAlign=top;childLayout=stackLayout;horizontal=1;startSize=26;horizontalStack=0;resizeParent=1;resizeParentMax=0;resizeLast=0;collapsible=1;marginBottom=0;" vertex="1" parent="1">
          <mxGeometry x="475" y="1190" width="130" height="220" as="geometry" />
        </mxCell>
        <mxCell id="A5qt4LOctd-uwlwcJDt4-12" value="- IDorden:int" style="text;strokeColor=none;fillColor=none;align=left;verticalAlign=top;spacingLeft=4;spacingRight=4;overflow=hidden;rotatable=0;points=[[0,0.5],[1,0.5]];portConstraint=eastwest;" vertex="1" parent="A5qt4LOctd-uwlwcJDt4-11">
          <mxGeometry y="26" width="130" height="26" as="geometry" />
        </mxCell>
        <mxCell id="A5qt4LOctd-uwlwcJDt4-13" value="-TotalOr:int" style="text;strokeColor=none;fillColor=none;align=left;verticalAlign=top;spacingLeft=4;spacingRight=4;overflow=hidden;rotatable=0;points=[[0,0.5],[1,0.5]];portConstraint=eastwest;" vertex="1" parent="A5qt4LOctd-uwlwcJDt4-11">
          <mxGeometry y="52" width="130" height="26" as="geometry" />
        </mxCell>
        <mxCell id="A5qt4LOctd-uwlwcJDt4-14" value="- Estado:String" style="text;strokeColor=none;fillColor=none;align=left;verticalAlign=top;spacingLeft=4;spacingRight=4;overflow=hidden;rotatable=0;points=[[0,0.5],[1,0.5]];portConstraint=eastwest;" vertex="1" parent="A5qt4LOctd-uwlwcJDt4-11">
          <mxGeometry y="78" width="130" height="26" as="geometry" />
        </mxCell>
        <mxCell id="A5qt4LOctd-uwlwcJDt4-15" value="- NumMesa:int" style="text;strokeColor=none;fillColor=none;align=left;verticalAlign=top;spacingLeft=4;spacingRight=4;overflow=hidden;rotatable=0;points=[[0,0.5],[1,0.5]];portConstraint=eastwest;" vertex="1" parent="A5qt4LOctd-uwlwcJDt4-11">
          <mxGeometry y="104" width="130" height="30" as="geometry" />
        </mxCell>
        <mxCell id="A5qt4LOctd-uwlwcJDt4-16" value="" style="line;strokeWidth=1;fillColor=none;align=left;verticalAlign=middle;spacingTop=-1;spacingLeft=3;spacingRight=3;rotatable=0;labelPosition=right;points=[];portConstraint=eastwest;" vertex="1" parent="A5qt4LOctd-uwlwcJDt4-11">
          <mxGeometry y="134" width="130" height="8" as="geometry" />
        </mxCell>
        <mxCell id="A5qt4LOctd-uwlwcJDt4-17" value="+Agregar()" style="text;strokeColor=none;fillColor=none;align=left;verticalAlign=top;spacingLeft=4;spacingRight=4;overflow=hidden;rotatable=0;points=[[0,0.5],[1,0.5]];portConstraint=eastwest;" vertex="1" parent="A5qt4LOctd-uwlwcJDt4-11">
          <mxGeometry y="142" width="130" height="26" as="geometry" />
        </mxCell>
        <mxCell id="A5qt4LOctd-uwlwcJDt4-18" value="+Editar()" style="text;strokeColor=none;fillColor=none;align=left;verticalAlign=top;spacingLeft=4;spacingRight=4;overflow=hidden;rotatable=0;points=[[0,0.5],[1,0.5]];portConstraint=eastwest;" vertex="1" parent="A5qt4LOctd-uwlwcJDt4-11">
          <mxGeometry y="168" width="130" height="26" as="geometry" />
        </mxCell>
        <mxCell id="A5qt4LOctd-uwlwcJDt4-19" value="+Elimijnar()" style="text;strokeColor=none;fillColor=none;align=left;verticalAlign=top;spacingLeft=4;spacingRight=4;overflow=hidden;rotatable=0;points=[[0,0.5],[1,0.5]];portConstraint=eastwest;" vertex="1" parent="A5qt4LOctd-uwlwcJDt4-11">
          <mxGeometry y="194" width="130" height="26" as="geometry" />
        </mxCell>
        <mxCell id="A5qt4LOctd-uwlwcJDt4-20" style="edgeStyle=orthogonalEdgeStyle;rounded=0;orthogonalLoop=1;jettySize=auto;html=1;entryX=1.018;entryY=0.808;entryDx=0;entryDy=0;entryPerimeter=0;endArrow=none;endFill=0;" edge="1" parent="1" source="A5qt4LOctd-uwlwcJDt4-21" target="A5qt4LOctd-uwlwcJDt4-39">
          <mxGeometry relative="1" as="geometry">
            <Array as="points">
              <mxPoint x="955" y="1230" />
              <mxPoint x="955" y="1577" />
            </Array>
          </mxGeometry>
        </mxCell>
        <mxCell id="A5qt4LOctd-uwlwcJDt4-21" value="MENU" style="swimlane;fontStyle=1;align=center;verticalAlign=top;childLayout=stackLayout;horizontal=1;startSize=26;horizontalStack=0;resizeParent=1;resizeParentMax=0;resizeLast=0;collapsible=1;marginBottom=0;" vertex="1" parent="1">
          <mxGeometry x="775" y="1190" width="130" height="220" as="geometry" />
        </mxCell>
        <mxCell id="A5qt4LOctd-uwlwcJDt4-22" value="- IDplatillo:int" style="text;strokeColor=none;fillColor=none;align=left;verticalAlign=top;spacingLeft=4;spacingRight=4;overflow=hidden;rotatable=0;points=[[0,0.5],[1,0.5]];portConstraint=eastwest;" vertex="1" parent="A5qt4LOctd-uwlwcJDt4-21">
          <mxGeometry y="26" width="130" height="26" as="geometry" />
        </mxCell>
        <mxCell id="A5qt4LOctd-uwlwcJDt4-23" value="-nombre:String" style="text;strokeColor=none;fillColor=none;align=left;verticalAlign=top;spacingLeft=4;spacingRight=4;overflow=hidden;rotatable=0;points=[[0,0.5],[1,0.5]];portConstraint=eastwest;" vertex="1" parent="A5qt4LOctd-uwlwcJDt4-21">
          <mxGeometry y="52" width="130" height="26" as="geometry" />
        </mxCell>
        <mxCell id="A5qt4LOctd-uwlwcJDt4-24" value="- precio:int" style="text;strokeColor=none;fillColor=none;align=left;verticalAlign=top;spacingLeft=4;spacingRight=4;overflow=hidden;rotatable=0;points=[[0,0.5],[1,0.5]];portConstraint=eastwest;" vertex="1" parent="A5qt4LOctd-uwlwcJDt4-21">
          <mxGeometry y="78" width="130" height="26" as="geometry" />
        </mxCell>
        <mxCell id="A5qt4LOctd-uwlwcJDt4-25" value="- idcategoria:int" style="text;strokeColor=none;fillColor=none;align=left;verticalAlign=top;spacingLeft=4;spacingRight=4;overflow=hidden;rotatable=0;points=[[0,0.5],[1,0.5]];portConstraint=eastwest;" vertex="1" parent="A5qt4LOctd-uwlwcJDt4-21">
          <mxGeometry y="104" width="130" height="30" as="geometry" />
        </mxCell>
        <mxCell id="A5qt4LOctd-uwlwcJDt4-26" value="" style="line;strokeWidth=1;fillColor=none;align=left;verticalAlign=middle;spacingTop=-1;spacingLeft=3;spacingRight=3;rotatable=0;labelPosition=right;points=[];portConstraint=eastwest;" vertex="1" parent="A5qt4LOctd-uwlwcJDt4-21">
          <mxGeometry y="134" width="130" height="8" as="geometry" />
        </mxCell>
        <mxCell id="A5qt4LOctd-uwlwcJDt4-27" value="+Agregar()" style="text;strokeColor=none;fillColor=none;align=left;verticalAlign=top;spacingLeft=4;spacingRight=4;overflow=hidden;rotatable=0;points=[[0,0.5],[1,0.5]];portConstraint=eastwest;" vertex="1" parent="A5qt4LOctd-uwlwcJDt4-21">
          <mxGeometry y="142" width="130" height="26" as="geometry" />
        </mxCell>
        <mxCell id="A5qt4LOctd-uwlwcJDt4-28" value="+Editar()" style="text;strokeColor=none;fillColor=none;align=left;verticalAlign=top;spacingLeft=4;spacingRight=4;overflow=hidden;rotatable=0;points=[[0,0.5],[1,0.5]];portConstraint=eastwest;" vertex="1" parent="A5qt4LOctd-uwlwcJDt4-21">
          <mxGeometry y="168" width="130" height="26" as="geometry" />
        </mxCell>
        <mxCell id="A5qt4LOctd-uwlwcJDt4-29" value="+Elimijnar()" style="text;strokeColor=none;fillColor=none;align=left;verticalAlign=top;spacingLeft=4;spacingRight=4;overflow=hidden;rotatable=0;points=[[0,0.5],[1,0.5]];portConstraint=eastwest;" vertex="1" parent="A5qt4LOctd-uwlwcJDt4-21">
          <mxGeometry y="194" width="130" height="26" as="geometry" />
        </mxCell>
        <mxCell id="A5qt4LOctd-uwlwcJDt4-30" value="USUARIO" style="swimlane;fontStyle=1;align=center;verticalAlign=top;childLayout=stackLayout;horizontal=1;startSize=26;horizontalStack=0;resizeParent=1;resizeParentMax=0;resizeLast=0;collapsible=1;marginBottom=0;" vertex="1" parent="1">
          <mxGeometry x="475" y="1517" width="130" height="190" as="geometry" />
        </mxCell>
        <mxCell id="A5qt4LOctd-uwlwcJDt4-31" value="- IDusuario:int" style="text;strokeColor=none;fillColor=none;align=left;verticalAlign=top;spacingLeft=4;spacingRight=4;overflow=hidden;rotatable=0;points=[[0,0.5],[1,0.5]];portConstraint=eastwest;" vertex="1" parent="A5qt4LOctd-uwlwcJDt4-30">
          <mxGeometry y="26" width="130" height="26" as="geometry" />
        </mxCell>
        <mxCell id="A5qt4LOctd-uwlwcJDt4-32" value="-NomUsuario:String" style="text;strokeColor=none;fillColor=none;align=left;verticalAlign=top;spacingLeft=4;spacingRight=4;overflow=hidden;rotatable=0;points=[[0,0.5],[1,0.5]];portConstraint=eastwest;" vertex="1" parent="A5qt4LOctd-uwlwcJDt4-30">
          <mxGeometry y="52" width="130" height="26" as="geometry" />
        </mxCell>
        <mxCell id="A5qt4LOctd-uwlwcJDt4-33" value="- cargo:String" style="text;strokeColor=none;fillColor=none;align=left;verticalAlign=top;spacingLeft=4;spacingRight=4;overflow=hidden;rotatable=0;points=[[0,0.5],[1,0.5]];portConstraint=eastwest;" vertex="1" parent="A5qt4LOctd-uwlwcJDt4-30">
          <mxGeometry y="78" width="130" height="26" as="geometry" />
        </mxCell>
        <mxCell id="A5qt4LOctd-uwlwcJDt4-34" value="" style="line;strokeWidth=1;fillColor=none;align=left;verticalAlign=middle;spacingTop=-1;spacingLeft=3;spacingRight=3;rotatable=0;labelPosition=right;points=[];portConstraint=eastwest;" vertex="1" parent="A5qt4LOctd-uwlwcJDt4-30">
          <mxGeometry y="104" width="130" height="8" as="geometry" />
        </mxCell>
        <mxCell id="A5qt4LOctd-uwlwcJDt4-35" value="+Agregar()" style="text;strokeColor=none;fillColor=none;align=left;verticalAlign=top;spacingLeft=4;spacingRight=4;overflow=hidden;rotatable=0;points=[[0,0.5],[1,0.5]];portConstraint=eastwest;" vertex="1" parent="A5qt4LOctd-uwlwcJDt4-30">
          <mxGeometry y="112" width="130" height="26" as="geometry" />
        </mxCell>
        <mxCell id="A5qt4LOctd-uwlwcJDt4-36" value="+Editar()" style="text;strokeColor=none;fillColor=none;align=left;verticalAlign=top;spacingLeft=4;spacingRight=4;overflow=hidden;rotatable=0;points=[[0,0.5],[1,0.5]];portConstraint=eastwest;" vertex="1" parent="A5qt4LOctd-uwlwcJDt4-30">
          <mxGeometry y="138" width="130" height="26" as="geometry" />
        </mxCell>
        <mxCell id="A5qt4LOctd-uwlwcJDt4-37" value="+Elimijnar()" style="text;strokeColor=none;fillColor=none;align=left;verticalAlign=top;spacingLeft=4;spacingRight=4;overflow=hidden;rotatable=0;points=[[0,0.5],[1,0.5]];portConstraint=eastwest;" vertex="1" parent="A5qt4LOctd-uwlwcJDt4-30">
          <mxGeometry y="164" width="130" height="26" as="geometry" />
        </mxCell>
        <mxCell id="A5qt4LOctd-uwlwcJDt4-38" value="CATEGORIA" style="swimlane;fontStyle=1;align=center;verticalAlign=top;childLayout=stackLayout;horizontal=1;startSize=26;horizontalStack=0;resizeParent=1;resizeParentMax=0;resizeLast=0;collapsible=1;marginBottom=0;" vertex="1" parent="1">
          <mxGeometry x="775" y="1530" width="130" height="164" as="geometry" />
        </mxCell>
        <mxCell id="A5qt4LOctd-uwlwcJDt4-39" value="- IDcategoria:int" style="text;strokeColor=none;fillColor=none;align=left;verticalAlign=top;spacingLeft=4;spacingRight=4;overflow=hidden;rotatable=0;points=[[0,0.5],[1,0.5]];portConstraint=eastwest;" vertex="1" parent="A5qt4LOctd-uwlwcJDt4-38">
          <mxGeometry y="26" width="130" height="26" as="geometry" />
        </mxCell>
        <mxCell id="A5qt4LOctd-uwlwcJDt4-40" value="-TipoCategoria:String" style="text;strokeColor=none;fillColor=none;align=left;verticalAlign=top;spacingLeft=4;spacingRight=4;overflow=hidden;rotatable=0;points=[[0,0.5],[1,0.5]];portConstraint=eastwest;" vertex="1" parent="A5qt4LOctd-uwlwcJDt4-38">
          <mxGeometry y="52" width="130" height="26" as="geometry" />
        </mxCell>
        <mxCell id="A5qt4LOctd-uwlwcJDt4-41" value="" style="line;strokeWidth=1;fillColor=none;align=left;verticalAlign=middle;spacingTop=-1;spacingLeft=3;spacingRight=3;rotatable=0;labelPosition=right;points=[];portConstraint=eastwest;" vertex="1" parent="A5qt4LOctd-uwlwcJDt4-38">
          <mxGeometry y="78" width="130" height="8" as="geometry" />
        </mxCell>
        <mxCell id="A5qt4LOctd-uwlwcJDt4-42" value="+Agregar()" style="text;strokeColor=none;fillColor=none;align=left;verticalAlign=top;spacingLeft=4;spacingRight=4;overflow=hidden;rotatable=0;points=[[0,0.5],[1,0.5]];portConstraint=eastwest;" vertex="1" parent="A5qt4LOctd-uwlwcJDt4-38">
          <mxGeometry y="86" width="130" height="26" as="geometry" />
        </mxCell>
        <mxCell id="A5qt4LOctd-uwlwcJDt4-43" value="+Editar()" style="text;strokeColor=none;fillColor=none;align=left;verticalAlign=top;spacingLeft=4;spacingRight=4;overflow=hidden;rotatable=0;points=[[0,0.5],[1,0.5]];portConstraint=eastwest;" vertex="1" parent="A5qt4LOctd-uwlwcJDt4-38">
          <mxGeometry y="112" width="130" height="26" as="geometry" />
        </mxCell>
        <mxCell id="A5qt4LOctd-uwlwcJDt4-44" value="+Elimijnar()" style="text;strokeColor=none;fillColor=none;align=left;verticalAlign=top;spacingLeft=4;spacingRight=4;overflow=hidden;rotatable=0;points=[[0,0.5],[1,0.5]];portConstraint=eastwest;" vertex="1" parent="A5qt4LOctd-uwlwcJDt4-38">
          <mxGeometry y="138" width="130" height="26" as="geometry" />
        </mxCell>
        <mxCell id="A5qt4LOctd-uwlwcJDt4-45" style="edgeStyle=orthogonalEdgeStyle;rounded=0;orthogonalLoop=1;jettySize=auto;html=1;entryX=0;entryY=0.5;entryDx=0;entryDy=0;endArrow=none;endFill=0;" edge="1" parent="1" source="A5qt4LOctd-uwlwcJDt4-3" target="A5qt4LOctd-uwlwcJDt4-12">
          <mxGeometry relative="1" as="geometry" />
        </mxCell>
        <mxCell id="A5qt4LOctd-uwlwcJDt4-46" value="" style="triangle;whiteSpace=wrap;html=1;fillColor=#000000;" vertex="1" parent="1">
          <mxGeometry x="405" y="1250" width="40" height="45" as="geometry" />
        </mxCell>
        <mxCell id="A5qt4LOctd-uwlwcJDt4-47" value="1" style="text;html=1;strokeColor=none;fillColor=none;align=center;verticalAlign=middle;whiteSpace=wrap;rounded=0;" vertex="1" parent="1">
          <mxGeometry x="325" y="1200" width="60" height="30" as="geometry" />
        </mxCell>
        <mxCell id="A5qt4LOctd-uwlwcJDt4-48" value="*" style="text;html=1;strokeColor=none;fillColor=none;align=center;verticalAlign=middle;whiteSpace=wrap;rounded=0;" vertex="1" parent="1">
          <mxGeometry x="435" y="1200" width="60" height="30" as="geometry" />
        </mxCell>
        <mxCell id="A5qt4LOctd-uwlwcJDt4-49" value="realiza" style="text;html=1;strokeColor=none;fillColor=none;align=center;verticalAlign=middle;whiteSpace=wrap;rounded=0;" vertex="1" parent="1">
          <mxGeometry x="385" y="1200" width="60" height="30" as="geometry" />
        </mxCell>
        <mxCell id="A5qt4LOctd-uwlwcJDt4-50" value="" style="triangle;whiteSpace=wrap;html=1;fillColor=#000000;" vertex="1" parent="1">
          <mxGeometry x="675" y="1250" width="40" height="45" as="geometry" />
        </mxCell>
        <mxCell id="A5qt4LOctd-uwlwcJDt4-51" style="edgeStyle=orthogonalEdgeStyle;rounded=0;orthogonalLoop=1;jettySize=auto;html=1;entryX=0;entryY=0.5;entryDx=0;entryDy=0;endArrow=none;endFill=0;" edge="1" parent="1" source="A5qt4LOctd-uwlwcJDt4-12" target="A5qt4LOctd-uwlwcJDt4-22">
          <mxGeometry relative="1" as="geometry" />
        </mxCell>
        <mxCell id="A5qt4LOctd-uwlwcJDt4-52" value="1..*" style="text;html=1;strokeColor=none;fillColor=none;align=center;verticalAlign=middle;whiteSpace=wrap;rounded=0;" vertex="1" parent="1">
          <mxGeometry x="595" y="1200" width="60" height="30" as="geometry" />
        </mxCell>
        <mxCell id="A5qt4LOctd-uwlwcJDt4-53" value="1..*" style="text;html=1;strokeColor=none;fillColor=none;align=center;verticalAlign=middle;whiteSpace=wrap;rounded=0;" vertex="1" parent="1">
          <mxGeometry x="725" y="1200" width="60" height="30" as="geometry" />
        </mxCell>
        <mxCell id="A5qt4LOctd-uwlwcJDt4-54" value="esta conformado" style="text;html=1;strokeColor=none;fillColor=none;align=center;verticalAlign=middle;whiteSpace=wrap;rounded=0;" vertex="1" parent="1">
          <mxGeometry x="665" y="1200" width="60" height="30" as="geometry" />
        </mxCell>
        <mxCell id="A5qt4LOctd-uwlwcJDt4-55" value="" style="triangle;whiteSpace=wrap;html=1;fillColor=#000000;rotation=-90;" vertex="1" parent="1">
          <mxGeometry x="820" y="1440" width="40" height="45" as="geometry" />
        </mxCell>
        <mxCell id="A5qt4LOctd-uwlwcJDt4-56" value="*" style="text;html=1;strokeColor=none;fillColor=none;align=center;verticalAlign=middle;whiteSpace=wrap;rounded=0;" vertex="1" parent="1">
          <mxGeometry x="445" y="1210" width="60" height="30" as="geometry" />
        </mxCell>
        <mxCell id="A5qt4LOctd-uwlwcJDt4-57" value="1..*" style="text;html=1;strokeColor=none;fillColor=none;align=center;verticalAlign=middle;whiteSpace=wrap;rounded=0;" vertex="1" parent="1">
          <mxGeometry x="895" y="1200" width="60" height="30" as="geometry" />
        </mxCell>
        <mxCell id="A5qt4LOctd-uwlwcJDt4-58" value="1" style="text;html=1;strokeColor=none;fillColor=none;align=center;verticalAlign=middle;whiteSpace=wrap;rounded=0;" vertex="1" parent="1">
          <mxGeometry x="895" y="1580" width="60" height="30" as="geometry" />
        </mxCell>
        <mxCell id="A5qt4LOctd-uwlwcJDt4-59" value="contiene" style="text;html=1;strokeColor=none;fillColor=none;align=center;verticalAlign=middle;whiteSpace=wrap;rounded=0;" vertex="1" parent="1">
          <mxGeometry x="895" y="1420" width="60" height="30" as="geometry" />
        </mxCell>
        <mxCell id="A5qt4LOctd-uwlwcJDt4-60" value="" style="triangle;whiteSpace=wrap;html=1;fillColor=#000000;rotation=89;" vertex="1" parent="1">
          <mxGeometry x="555" y="1440" width="40" height="45" as="geometry" />
        </mxCell>
        <mxCell id="A5qt4LOctd-uwlwcJDt4-61" value="toma" style="text;html=1;strokeColor=none;fillColor=none;align=center;verticalAlign=middle;whiteSpace=wrap;rounded=0;" vertex="1" parent="1">
          <mxGeometry x="485" y="1450" width="60" height="30" as="geometry" />
        </mxCell>
        <mxCell id="A5qt4LOctd-uwlwcJDt4-62" value="1" style="text;html=1;strokeColor=none;fillColor=none;align=center;verticalAlign=middle;whiteSpace=wrap;rounded=0;" vertex="1" parent="1">
          <mxGeometry x="495" y="1490" width="60" height="30" as="geometry" />
        </mxCell>
        <mxCell id="A5qt4LOctd-uwlwcJDt4-63" value="*" style="text;html=1;strokeColor=none;fillColor=none;align=center;verticalAlign=middle;whiteSpace=wrap;rounded=0;" vertex="1" parent="1">
          <mxGeometry x="495" y="1410" width="60" height="30" as="geometry" />
        </mxCell>
        <mxCell id="A5qt4LOctd-uwlwcJDt4-64" style="edgeStyle=none;rounded=0;orthogonalLoop=1;jettySize=auto;html=1;endArrow=none;endFill=0;" edge="1" parent="1" source="A5qt4LOctd-uwlwcJDt4-66">
          <mxGeometry relative="1" as="geometry">
            <mxPoint x="545" y="1770" as="targetPoint" />
          </mxGeometry>
        </mxCell>
        <mxCell id="A5qt4LOctd-uwlwcJDt4-65" style="edgeStyle=none;rounded=0;orthogonalLoop=1;jettySize=auto;html=1;endArrow=block;endFill=0;" edge="1" parent="1">
          <mxGeometry relative="1" as="geometry">
            <Array as="points" />
            <mxPoint x="545" y="1770" as="sourcePoint" />
            <mxPoint x="545" y="1710" as="targetPoint" />
          </mxGeometry>
        </mxCell>
        <mxCell id="A5qt4LOctd-uwlwcJDt4-66" value="CAJERO" style="swimlane;fontStyle=1;align=center;verticalAlign=top;childLayout=stackLayout;horizontal=1;startSize=26;horizontalStack=0;resizeParent=1;resizeParentMax=0;resizeLast=0;collapsible=1;marginBottom=0;" vertex="1" parent="1">
          <mxGeometry x="480" y="1832" width="130" height="112" as="geometry" />
        </mxCell>
        <mxCell id="A5qt4LOctd-uwlwcJDt4-67" value="" style="line;strokeWidth=1;fillColor=none;align=left;verticalAlign=middle;spacingTop=-1;spacingLeft=3;spacingRight=3;rotatable=0;labelPosition=right;points=[];portConstraint=eastwest;" vertex="1" parent="A5qt4LOctd-uwlwcJDt4-66">
          <mxGeometry y="26" width="130" height="8" as="geometry" />
        </mxCell>
        <mxCell id="A5qt4LOctd-uwlwcJDt4-68" value="+TomarOrden()" style="text;strokeColor=none;fillColor=none;align=left;verticalAlign=top;spacingLeft=4;spacingRight=4;overflow=hidden;rotatable=0;points=[[0,0.5],[1,0.5]];portConstraint=eastwest;" vertex="1" parent="A5qt4LOctd-uwlwcJDt4-66">
          <mxGeometry y="34" width="130" height="26" as="geometry" />
        </mxCell>
        <mxCell id="A5qt4LOctd-uwlwcJDt4-69" value="+Visualizar()" style="text;strokeColor=none;fillColor=none;align=left;verticalAlign=top;spacingLeft=4;spacingRight=4;overflow=hidden;rotatable=0;points=[[0,0.5],[1,0.5]];portConstraint=eastwest;" vertex="1" parent="A5qt4LOctd-uwlwcJDt4-66">
          <mxGeometry y="60" width="130" height="26" as="geometry" />
        </mxCell>
        <mxCell id="A5qt4LOctd-uwlwcJDt4-70" value="+Cobrar()" style="text;strokeColor=none;fillColor=none;align=left;verticalAlign=top;spacingLeft=4;spacingRight=4;overflow=hidden;rotatable=0;points=[[0,0.5],[1,0.5]];portConstraint=eastwest;" vertex="1" parent="A5qt4LOctd-uwlwcJDt4-66">
          <mxGeometry y="86" width="130" height="26" as="geometry" />
        </mxCell>
        <mxCell id="A5qt4LOctd-uwlwcJDt4-71" style="edgeStyle=none;rounded=0;orthogonalLoop=1;jettySize=auto;html=1;endArrow=none;endFill=0;entryX=0.449;entryY=0.028;entryDx=0;entryDy=0;entryPerimeter=0;" edge="1" parent="1" source="A5qt4LOctd-uwlwcJDt4-72" target="A5qt4LOctd-uwlwcJDt4-77">
          <mxGeometry relative="1" as="geometry">
            <mxPoint x="375" y="1770" as="targetPoint" />
            <Array as="points">
              <mxPoint x="720" y="1770" />
              <mxPoint x="373" y="1770" />
            </Array>
          </mxGeometry>
        </mxCell>
        <mxCell id="A5qt4LOctd-uwlwcJDt4-72" value="ADMINISTRADOR" style="swimlane;fontStyle=1;align=center;verticalAlign=top;childLayout=stackLayout;horizontal=1;startSize=26;horizontalStack=0;resizeParent=1;resizeParentMax=0;resizeLast=0;collapsible=1;marginBottom=0;" vertex="1" parent="1">
          <mxGeometry x="655" y="1830" width="130" height="112" as="geometry" />
        </mxCell>
        <mxCell id="A5qt4LOctd-uwlwcJDt4-73" value="" style="line;strokeWidth=1;fillColor=none;align=left;verticalAlign=middle;spacingTop=-1;spacingLeft=3;spacingRight=3;rotatable=0;labelPosition=right;points=[];portConstraint=eastwest;" vertex="1" parent="A5qt4LOctd-uwlwcJDt4-72">
          <mxGeometry y="26" width="130" height="8" as="geometry" />
        </mxCell>
        <mxCell id="A5qt4LOctd-uwlwcJDt4-74" value="+ConfigurarMenu()" style="text;strokeColor=none;fillColor=none;align=left;verticalAlign=top;spacingLeft=4;spacingRight=4;overflow=hidden;rotatable=0;points=[[0,0.5],[1,0.5]];portConstraint=eastwest;" vertex="1" parent="A5qt4LOctd-uwlwcJDt4-72">
          <mxGeometry y="34" width="130" height="26" as="geometry" />
        </mxCell>
        <mxCell id="A5qt4LOctd-uwlwcJDt4-75" value="+Visualizar()" style="text;strokeColor=none;fillColor=none;align=left;verticalAlign=top;spacingLeft=4;spacingRight=4;overflow=hidden;rotatable=0;points=[[0,0.5],[1,0.5]];portConstraint=eastwest;" vertex="1" parent="A5qt4LOctd-uwlwcJDt4-72">
          <mxGeometry y="60" width="130" height="26" as="geometry" />
        </mxCell>
        <mxCell id="A5qt4LOctd-uwlwcJDt4-76" value="+CrearReporte()" style="text;strokeColor=none;fillColor=none;align=left;verticalAlign=top;spacingLeft=4;spacingRight=4;overflow=hidden;rotatable=0;points=[[0,0.5],[1,0.5]];portConstraint=eastwest;" vertex="1" parent="A5qt4LOctd-uwlwcJDt4-72">
          <mxGeometry y="86" width="130" height="26" as="geometry" />
        </mxCell>
        <mxCell id="A5qt4LOctd-uwlwcJDt4-77" value="MESERO" style="swimlane;fontStyle=1;align=center;verticalAlign=top;childLayout=stackLayout;horizontal=1;startSize=26;horizontalStack=0;resizeParent=1;resizeParentMax=0;resizeLast=0;collapsible=1;marginBottom=0;" vertex="1" parent="1">
          <mxGeometry x="315" y="1832" width="130" height="60" as="geometry" />
        </mxCell>
        <mxCell id="A5qt4LOctd-uwlwcJDt4-78" value="" style="line;strokeWidth=1;fillColor=none;align=left;verticalAlign=middle;spacingTop=-1;spacingLeft=3;spacingRight=3;rotatable=0;labelPosition=right;points=[];portConstraint=eastwest;" vertex="1" parent="A5qt4LOctd-uwlwcJDt4-77">
          <mxGeometry y="26" width="130" height="8" as="geometry" />
        </mxCell>
        <mxCell id="A5qt4LOctd-uwlwcJDt4-79" value="+TomarOrden()" style="text;strokeColor=none;fillColor=none;align=left;verticalAlign=top;spacingLeft=4;spacingRight=4;overflow=hidden;rotatable=0;points=[[0,0.5],[1,0.5]];portConstraint=eastwest;" vertex="1" parent="A5qt4LOctd-uwlwcJDt4-77">
          <mxGeometry y="34" width="130" height="26" as="geometry" />
        </mxCell>
      </root>
    </mxGraphModel>
  </diagram>
</mxfile>
